<svg id="Ebene_1" data-name="Ebene 1" xmlns="http://www.w3.org/2000/svg" xmlns:xlink="http://www.w3.org/1999/xlink" width="37.97mm" height="38mm" viewBox="0 0 107.63 107.72"><defs><clipPath id="clip-path"><rect width="107.63" height="107.72" style="fill:none"/></clipPath></defs><title>Zeichenfläche 1</title><g style="clip-path:url(#clip-path)"><path d="M100,0H7.61A7.61,7.61,0,0,0,0,7.61V51.32a7.61,7.61,0,0,0,7.61,7.61H34.18a20.55,20.55,0,1,0,39.05,0H100a7.61,7.61,0,0,0,7.61-7.61V7.61A7.61,7.61,0,0,0,100,0" style="fill:#c30831"/><path d="M69.72,35.63a2.88,2.88,0,1,0,2.86-2.93,2.88,2.88,0,0,0-2.86,2.93M56.4,29.69c0-1.47-.73-2.42-2-2.41s-2.09.95-2.08,2.44l.06,9c0,2.79,1.47,2.92,1.47,2.92v.81L45,42.55v-.81s1.45-.15,1.43-3l-.13-18.3c0-3.11-1.47-3.34-1.47-3.34v-.81a14.2,14.2,0,0,0,6.51-3.05l.88,0,.09,12.26a5.76,5.76,0,0,1,4.57-2.21c3.61,0,5.51,2.16,5.53,5.54l.07,9.81c0,2.8,1.47,2.93,1.47,2.93v.81L55,42.48v-.81s1.45-.15,1.43-3ZM38.52,43c-5.25,0-8.09-4.31-8.13-9.72,0-5.65,3.13-9.81,7.83-9.84,2.65,0,4,1.18,4.65,1.17s.65-.78.65-.78h.86l0,6.72h-.86s-.27-3.95-3.28-3.93c-2.44,0-3.83,2.21-3.8,6.62,0,4.24,1.39,7.07,4.06,7a4.46,4.46,0,0,0,3.54-1.95l.79.39A6.44,6.44,0,0,1,38.52,43M66.9,19.65a2.45,2.45,0,1,1,2.47,2.46,2.47,2.47,0,0,1-2.47-2.46m6.18,0a2.45,2.45,0,1,1,2.47,2.46,2.46,2.46,0,0,1-2.47-2.46M11.7,33h.94s1.52,6.63,6.69,6.59c2.62,0,4.1-1.69,4.09-4.32,0-5.95-12-5.66-12.07-15.07,0-3.86,2.63-7.11,7.9-7.15,3.06,0,4.39,1.38,5.48,1.37a1.13,1.13,0,0,0,1.19-1h.95l.06,9.06H26s-.87-6.07-5.69-6a2.82,2.82,0,0,0-3,3c0,5.51,12.18,5.37,12.25,15.05,0,5.5-4,8.62-9.43,8.66-3.26,0-5-1.4-6-1.39a1.63,1.63,0,0,0-1.42,1h-1Zm52,3.2a6.68,6.68,0,0,1,6.69-6.66,6.76,6.76,0,0,1,3.14.74l-.26-.92A3.4,3.4,0,0,0,70,26.84a5.1,5.1,0,0,0-3.77,1.9l-.67-.38a7.58,7.58,0,0,1,7-5.15c3.86,0,5.81,2.13,6.68,5.09l3.72,12.63.05.17a3.46,3.46,0,0,0,.75-2.57l-.06-8.22c0-3.12-1.46-3.34-1.46-3.34v-.81a14.3,14.3,0,0,0,6.52-3.05l.88,0,0,3.05c1.05-1.79,2.9-3.41,4.71-3.42a2.65,2.65,0,0,1,2.89,2.65,2.64,2.64,0,0,1-2.66,2.9A2.94,2.94,0,0,1,92,26.94a6.13,6.13,0,0,0-2.34,5l0,6.52c0,2.8,1.47,2.93,1.47,2.93v.81l-7.78.06c1.34,3.39,3.64,5.38,6.46,5.47a6.15,6.15,0,0,0,3.72-1l.48.62a9.3,9.3,0,0,1-6.73,3.23c-5.52,0-8.8-3.37-10.36-8.75l-.68-2.33a6.77,6.77,0,0,1-5.74,3.23,6.68,6.68,0,0,1-6.78-6.56" style="fill:#fff"/><path d="M59.39,57h.1V57h.11a5.85,5.85,0,0,0,1.58-.27.63.63,0,0,0,.52-.59l.07-.49a3.88,3.88,0,0,0,.08-1.19l0-.1h-.12l0-.1h-.1a3.53,3.53,0,0,0-2,.41l-.05,0v.1a7,7,0,0,0-.19,2Z" style="fill:#fff"/><path d="M57.14,58.54l.06-.07,0,.1,1.24-1.35a3.44,3.44,0,0,0,.22-1.88l0-.16-.09,0,0-.13-.15.07a3.92,3.92,0,0,0-1,.75,1.37,1.37,0,0,0-.36.89,6.31,6.31,0,0,0,.08,1.48Z" style="fill:#fff"/><path d="M55.52,60.46l0-.05,0,.05.92-1s.15-.18-.19-2l0-.18-.07.05,0-.09-.15.11a1.91,1.91,0,0,0-.81,1.27,4.18,4.18,0,0,0,.23,1.65Z" style="fill:#fff"/><path d="M58.05,59.26h.11l0,0,.52,0a3.69,3.69,0,0,0,1.67-.37,4,4,0,0,0,.63-1l.07-.15h-.14l0-.06h-.17a4.08,4.08,0,0,0-1.33.11c-.35,0-.92.81-1.23,1.32Z" style="fill:#fff"/><path d="M53.53,61.05a2.94,2.94,0,0,0,.26,1.22l.08.16,0,0h0l.81-.87c.16-.11.12-.51,0-1.32l-.11-.92-.05,0v0l-.18.16c-.16.15-.94,1-.83,1.39a1.93,1.93,0,0,0,0,.23" style="fill:#fff"/><path d="M52.35,63.77l.16.29.12-.13.36-.4,0-.05a1.44,1.44,0,0,0,.05-1.13l-.25-.68-.66.64s0,0,0,0h0a.59.59,0,0,0,0,.08l0,.06a1.59,1.59,0,0,0,.29,1.28" style="fill:#fff"/><path d="M54.28,64.36a1.51,1.51,0,0,0,.69.12h.28c.09,0,.25-.06.84-.61.28-.26.66-.61,1.19-1.14l.16-.16-.22,0a4,4,0,0,0-1-.05l-.71,0,0,0h0l0,.05-.76,1-.52.68h0l0,0Z" style="fill:#fff"/><path d="M54,70.05V70c-.06-.41-.47-.54-.77-.63l-.11,0a10.7,10.7,0,0,0-3.8,1l-.07,0a8.85,8.85,0,0,1,.89-1.73l.63-1.12v0l0-.36h0l0-.1-.37,0a5.06,5.06,0,0,0-3,3A11,11,0,0,1,45,73.7l-.65.76,0,.27,0,0a.35.35,0,0,0,.1.11l0,.09,0,0a1.15,1.15,0,0,0,.89.5h.06a4,4,0,0,0,1.24-1l.1-.11a14.85,14.85,0,0,0,1.36-1.92l.17-.28c.84-1.24,2.29-1.51,3.57-1.74l.1,0a.22.22,0,0,1,.16,0,3.27,3.27,0,0,0-.74.94l-.4.6c-.87,1.52-1.76,3.49-1,5.37l.13.31h0l.1.23.1-.32a15.84,15.84,0,0,1,2-3.92,24.76,24.76,0,0,0,1.63-2.88s.1-.29.1-.29,0-.4,0-.4,0,0,0,0" style="fill:#fff"/><path d="M53.77,80.28A15.36,15.36,0,1,1,68.85,64.82,15.27,15.27,0,0,1,53.77,80.28m-.22-31.8A16.42,16.42,0,1,0,69.89,64.79,16.35,16.35,0,0,0,53.55,48.48" style="fill:#fff"/><path d="M59.14,60.29l.09-.17h-.09v0H59c-.27,0-1.62,0-1.89.36l-.87,1.15.49,0h.52A2.79,2.79,0,0,0,58,61.5c.59-.13,1.15-1.16,1.18-1.21" style="fill:#fff"/><path d="M64.79,70.76l-.08-.23A8,8,0,0,1,59.13,69l-.26-.17-8.64-5.5L49,62.52c-2.11-1.34-4.3-2.73-7-2l-.11,0c-.16.08-.35.17-.4.38l0,.14h0l0,.11,1.2,0c2.3.21,4.22,1.55,6.08,2.84.14.09,9.16,5.93,10.06,6.55a5.47,5.47,0,0,0,6,.19v0l.05,0" style="fill:#fff"/><path d="M99.59,61.25a47,47,0,0,1-3.86,17.29A46.14,46.14,0,0,1,85.75,93a45.58,45.58,0,0,1-14.62,9.6,45.35,45.35,0,0,1-34.26,0,44,44,0,0,1-7.77-4.09A47.18,47.18,0,0,1,22.24,93a46.11,46.11,0,0,1-10-14.47A46.77,46.77,0,0,1,8.41,61.25a44.15,44.15,0,0,0,3.07,17.61A45,45,0,0,0,21.28,94a45.87,45.87,0,0,0,14.95,10.17A45.81,45.81,0,0,0,86.72,94a45.42,45.42,0,0,0,9.8-15.11,44.5,44.5,0,0,0,3.07-17.61" style="fill:#c30831"/><path d="M18.25,74.77a4.07,4.07,0,0,0,1.26.19,9,9,0,0,0,2.36-.38l.92-.26h0l-.9-3.22v0l-1.79.5h0l.33,1.16c-1.35.31-2,.12-2.23-.63s.49-1.54,2.39-2.07L22,69.62a5.45,5.45,0,0,1,2.2-.28,1,1,0,0,1,.91.81c.19.68-.18,1.17-1.21,1.58h0l.58,2v0l0,0c2.08-.88,2.94-2.35,2.44-4.16-.63-2.24-2.6-3-5.54-2.2L20,67.85c-4,1.11-4,3.46-3.59,4.76a2.87,2.87,0,0,0,1.87,2.16" style="fill:#c30831"/></g><polygon points="18.92 79.29 21.65 84.33 21.67 84.36 23.3 83.48 23.32 83.46 21.66 80.38 29.39 76.2 29.42 76.19 28.36 74.22 28.34 74.2 18.95 79.27 18.92 79.29" style="fill:#c30831"/><g style="clip-path:url(#clip-path)"><path d="M24.35,86.47a3.7,3.7,0,0,0,3.42,3.86A5.09,5.09,0,0,0,31,88.81l4.71-4.24,0,0-1.49-1.66,0,0-4.75,4.26c-1.38,1.24-2.17,1.45-2.81.73a1,1,0,0,1-.24-1.18,4.58,4.58,0,0,1,1.27-1.54l4.72-4.23,0,0L31,79.21l0,0-4.74,4.25a5.1,5.1,0,0,0-1.87,3" style="fill:#c30831"/></g><polygon points="41.13 99.41 46.71 100.81 46.74 100.82 47.19 99.03 47.2 99 43.79 98.13 44.45 95.5 47.45 96.26 47.48 96.27 47.94 94.47 47.95 94.44 44.91 93.68 45.49 91.41 48.87 92.26 48.9 92.27 49.35 90.47 49.36 90.44 43.78 89.03 43.75 89.03 41.14 99.38 41.13 99.41" style="fill:#c30831"/><polygon points="64.83 96.03 64.86 96.03 64.4 94.29 61.09 95.17 61.06 95.18 61.52 96.91 64.83 96.03" style="fill:#c30831"/><polygon points="89.79 75.9 91.45 70.4 91.46 70.36 89.68 69.83 89.65 69.82 88.64 73.19 86.04 72.41 86.93 69.45 86.94 69.42 85.17 68.88 85.14 68.87 84.24 71.86 82 71.19 83 67.85 83.01 67.82 81.24 67.28 81.21 67.28 79.55 72.78 79.54 72.81 89.76 75.89 89.79 75.9" style="fill:#c30831"/><polygon points="35.61 86.84 37.64 88.02 33.23 95.6 33.22 95.63 35.15 96.75 35.17 96.77 39.6 89.16 41.61 90.33 41.64 90.35 42.58 88.73 42.6 88.7 36.59 85.21 36.56 85.19 35.62 86.81 35.61 86.84" style="fill:#c30831"/><polygon points="51.1 101.34 53.37 101.28 53.23 95.57 56.37 101.2 56.38 101.21 58.27 101.17 58.02 90.5 58.02 90.47 55.76 90.52 55.89 96.32 52.74 90.61 52.73 90.59 50.85 90.63 51.1 101.3 51.1 101.34" style="fill:#c30831"/><polygon points="69.71 98.07 71.71 97 69.66 93.16 72.39 91.7 72.42 91.69 71.53 90.03 68.77 91.5 67.55 89.22 70.63 87.58 70.66 87.56 69.77 85.9 64.7 88.61 64.67 88.63 69.7 98.04 69.71 98.07" style="fill:#c30831"/><g style="clip-path:url(#clip-path)"><path d="M73.72,84.87l.64-.65c.73-.74,1.33-.76,2-.08s.66,1.25-.07,2l-.64.65Zm4.69,7.79L80,91.07l0,0-3-2.93.72-.73,4.08,1.79h0l1.63-1.67,0,0L79,85.59a3,3,0,0,0-1-3.07,3.17,3.17,0,0,0-2.43-1,3.73,3.73,0,0,0-2.36,1.22l-2.38,2.43,0,0,7.61,7.49Z" style="fill:#c30831"/></g><polygon points="85.33 84.77 88.2 79.78 88.22 79.75 86.61 78.83 86.58 78.81 84.83 81.86 82.48 80.51 84.02 77.83 84.04 77.8 82.44 76.88 82.41 76.86 80.85 79.57 78.82 78.4 80.56 75.38 80.58 75.35 78.97 74.43 78.94 74.41 76.07 79.4 76.05 79.42 85.3 84.75 85.33 84.77" style="fill:#c30831"/></svg>